<svg xmlns="http://www.w3.org/2000/svg" version="1.1" xmlns:xlink="http://www.w3.org/1999/xlink" xmlns:svgjs="http://svgjs.com/svgjs" width="1440" height="560" preserveAspectRatio="none" viewBox="0 0 1440 560"><g mask="url(&quot;#SvgjsMask1084&quot;)" fill="none"><rect width="201.6" height="201.6" clip-path="url(&quot;#SvgjsClipPath1085&quot;)" x="165.09" y="230.7" fill="url(#SvgjsPattern1086)" transform="rotate(274.56, 265.89, 331.5)"></rect><path d="M937.67 224.03a5.6 5.6 0 1 0 0.41 11.19 5.6 5.6 0 1 0-0.41-11.19zM938.26 240.02a5.6 5.6 0 1 0 0.41 11.19 5.6 5.6 0 1 0-0.41-11.19zM938.85 256a5.6 5.6 0 1 0 0.41 11.2 5.6 5.6 0 1 0-0.41-11.2zM939.43 271.99a5.6 5.6 0 1 0 0.41 11.2 5.6 5.6 0 1 0-0.41-11.2z" fill="rgba(57, 111, 180, 0.2)"></path><path d="M1355.24 118.23L1348.59 107.29 1357.81 98.4 1351.16 87.45 1360.38 78.56 1353.72 67.62 1362.94 58.73" stroke="rgba(57, 111, 180, 0.2)" stroke-width="1" stroke-dasharray="4, 4"></path><rect width="60" height="60" clip-path="url(&quot;#SvgjsClipPath1087&quot;)" x="876.44" y="411.43" fill="url(#SvgjsPattern1088)" transform="rotate(170.64, 906.44, 441.43)"></rect><path d="M138.67 301.97L141.66 289.51 154.46 289.7 157.45 277.25 170.26 277.43 173.25 264.98 186.06 265.17M143.57 308.28L146.56 295.83 159.37 296.02 162.36 283.57 175.17 283.75 178.16 271.3 190.96 271.49" stroke="rgba(57, 111, 180, 0.2)" stroke-width="1" stroke-dasharray="2, 2"></path><rect width="110.88" height="110.88" clip-path="url(&quot;#SvgjsClipPath1089&quot;)" x="466.27" y="191.85" fill="url(#SvgjsPattern1090)" transform="rotate(190.62, 521.71, 247.29)"></rect><path d="M1176.34 427.99L1165.65 435.04 1156.43 426.15 1145.74 433.2 1136.51 424.31 1125.82 431.36 1116.6 422.47" stroke="rgba(57, 111, 180, 0.2)" stroke-width="1"></path><path d="M46.599999999999994 307.40000000000003 L176.51 429.24L5.420165677579746 474.4548343224203z" fill="rgba(57, 111, 180, 0.2)"></path><path d="M1045.9 50.45L1055.7 42.19 1065.9 49.94 1075.69 41.69 1085.89 49.43 1095.69 41.18 1105.89 48.93" stroke="rgba(57, 111, 180, 0.2)" stroke-width="1" stroke-dasharray="3, 3"></path><rect width="253.12" height="253.12" clip-path="url(&quot;#SvgjsClipPath1091&quot;)" x="-31.32" y="424.11" fill="url(#SvgjsPattern1092)" transform="rotate(351.63, 95.24, 550.67)"></rect><path d="M51.58 380.9a5.6 5.6 0 1 0-11.18 0.73 5.6 5.6 0 1 0 11.18-0.73zM35.61 381.94a5.6 5.6 0 1 0-11.17 0.72 5.6 5.6 0 1 0 11.17-0.72zM19.65 382.97a5.6 5.6 0 1 0-11.18 0.73 5.6 5.6 0 1 0 11.18-0.73zM3.68 384.01a5.6 5.6 0 1 0-11.18 0.72 5.6 5.6 0 1 0 11.18-0.72z" stroke="rgba(57, 111, 180, 0.2)" stroke-width="1.97" stroke-dasharray="3, 3"></path><rect width="370.8" height="370.8" clip-path="url(&quot;#SvgjsClipPath1093&quot;)" x="1034.94" y="-172.41" fill="url(#SvgjsPattern1094)" transform="rotate(222.17, 1220.34, 12.99)"></rect></g><defs><mask id="SvgjsMask1084"><rect width="1440" height="560" fill="#ffffff"></rect></mask><pattern x="0" y="0" width="11.2" height="11.2" patternUnits="userSpaceOnUse" id="SvgjsPattern1086"><path d="M0 11.2L5.6 0L11.2 11.2" stroke="rgba(57, 111, 180, 0.2)" fill="none"></path></pattern><clipPath id="SvgjsClipPath1085"><circle r="50.4" cx="265.89" cy="331.5"></circle></clipPath><pattern x="0" y="0" width="60" height="6" patternUnits="userSpaceOnUse" id="SvgjsPattern1088"><rect width="60" height="3" x="0" y="0" fill="rgba(57, 111, 180, 0.2)"></rect><rect width="60" height="3" x="0" y="3" fill="rgba(0, 0, 0, 0)"></rect></pattern><clipPath id="SvgjsClipPath1087"><circle r="15" cx="906.44" cy="441.43"></circle></clipPath><pattern x="0" y="0" width="9.24" height="9.24" patternUnits="userSpaceOnUse" id="SvgjsPattern1090"><path d="M0 9.24L4.62 0L9.24 9.24" stroke="rgba(57, 111, 180, 0.2)" fill="none"></path></pattern><clipPath id="SvgjsClipPath1089"><circle r="27.72" cx="521.71" cy="247.29"></circle></clipPath><pattern x="0" y="0" width="253.12" height="9.04" patternUnits="userSpaceOnUse" id="SvgjsPattern1092"><rect width="253.12" height="4.52" x="0" y="0" fill="rgba(57, 111, 180, 0.2)"></rect><rect width="253.12" height="4.52" x="0" y="4.52" fill="rgba(0, 0, 0, 0)"></rect></pattern><clipPath id="SvgjsClipPath1091"><circle r="63.28" cx="95.24" cy="550.67"></circle></clipPath><pattern x="0" y="0" width="370.8" height="12.36" patternUnits="userSpaceOnUse" id="SvgjsPattern1094"><rect width="370.8" height="6.18" x="0" y="0" fill="rgba(57, 111, 180, 0.2)"></rect><rect width="370.8" height="6.18" x="0" y="6.18" fill="rgba(0, 0, 0, 0)"></rect></pattern><clipPath id="SvgjsClipPath1093"><circle r="92.7" cx="1220.34" cy="12.99"></circle></clipPath></defs></svg>