<svg xmlns="http://www.w3.org/2000/svg" version="1.1" xmlns:xlink="http://www.w3.org/1999/xlink" xmlns:svgjs="http://svgjs.com/svgjs" width="1440" height="560" preserveAspectRatio="none" viewBox="0 0 1440 560"><g mask="url(&quot;#SvgjsMask1138&quot;)" fill="none"><path d="M481.25 539.35a5.6 5.6 0 1 0-7.22-8.56 5.6 5.6 0 1 0 7.22 8.56zM470.93 527.12a5.6 5.6 0 1 0-7.22-8.56 5.6 5.6 0 1 0 7.22 8.56zM460.61 514.89a5.6 5.6 0 1 0-7.22-8.56 5.6 5.6 0 1 0 7.22 8.56zM450.29 502.67a5.6 5.6 0 1 0-7.22-8.56 5.6 5.6 0 1 0 7.22 8.56zM514.11 553.49a5.6 5.6 0 1 0-7.22-8.56 5.6 5.6 0 1 0 7.22 8.56zM503.8 541.26a5.6 5.6 0 1 0-7.23-8.56 5.6 5.6 0 1 0 7.23 8.56zM493.48 529.03a5.6 5.6 0 1 0-7.23-8.56 5.6 5.6 0 1 0 7.23 8.56zM483.16 516.8a5.6 5.6 0 1 0-7.23-8.56 5.6 5.6 0 1 0 7.23 8.56z" fill="rgba(57, 111, 180, 0.1)"></path><rect width="177.6" height="177.6" clip-path="url(&quot;#SvgjsClipPath1139&quot;)" x="-66.04" y="302.02" fill="url(#SvgjsPattern1140)" transform="rotate(254.89, 22.76, 390.82)"></rect><circle r="46.666666666666664" cx="1294.08" cy="318.01" stroke="rgba(57, 111, 180, 0.1)" stroke-width="1" stroke-dasharray="2, 2"></circle><circle r="46.666666666666664" cx="642.85" cy="69.6" fill="rgba(57, 111, 180, 0.1)"></circle><rect width="192" height="192" clip-path="url(&quot;#SvgjsClipPath1141&quot;)" x="779.71" y="398.33" fill="url(#SvgjsPattern1142)" transform="rotate(277.86, 875.71, 494.33)"></rect><path d="M1169.32 515.37a5.6 5.6 0 1 0 2.43-10.93 5.6 5.6 0 1 0-2.43 10.93zM1172.79 499.75a5.6 5.6 0 1 0 2.42-10.94 5.6 5.6 0 1 0-2.42 10.94zM1176.25 484.13a5.6 5.6 0 1 0 2.43-10.94 5.6 5.6 0 1 0-2.43 10.94zM1179.72 468.51a5.6 5.6 0 1 0 2.43-10.94 5.6 5.6 0 1 0-2.43 10.94zM1178.01 550.08a5.6 5.6 0 1 0 2.43-10.94 5.6 5.6 0 1 0-2.43 10.94zM1181.48 534.46a5.6 5.6 0 1 0 2.42-10.94 5.6 5.6 0 1 0-2.42 10.94zM1184.94 518.83a5.6 5.6 0 1 0 2.43-10.93 5.6 5.6 0 1 0-2.43 10.93zM1188.41 503.21a5.6 5.6 0 1 0 2.42-10.93 5.6 5.6 0 1 0-2.42 10.93z" stroke="rgba(57, 111, 180, 0.1)" stroke-width="2.41" stroke-dasharray="4, 4"></path><circle r="46.666666666666664" cx="679.39" cy="546.81" fill="rgba(57, 111, 180, 0.1)"></circle><rect width="66.39999999999999" height="66.39999999999999" clip-path="url(&quot;#SvgjsClipPath1143&quot;)" x="1052.66" y="148.4" fill="url(#SvgjsPattern1144)" transform="rotate(120.71, 1085.86, 181.6)"></rect><path d="M91.63 448.91a5.6 5.6 0 1 0 0.29-11.2 5.6 5.6 0 1 0-0.29 11.2zM92.05 432.91a5.6 5.6 0 1 0 0.29-11.19 5.6 5.6 0 1 0-0.29 11.19zM92.47 416.92a5.6 5.6 0 1 0 0.3-11.2 5.6 5.6 0 1 0-0.3 11.2zM92.89 400.92a5.6 5.6 0 1 0 0.3-11.19 5.6 5.6 0 1 0-0.3 11.19zM106.78 481.32a5.6 5.6 0 1 0 0.29-11.2 5.6 5.6 0 1 0-0.29 11.2zM107.2 465.32a5.6 5.6 0 1 0 0.3-11.19 5.6 5.6 0 1 0-0.3 11.19zM107.62 449.33a5.6 5.6 0 1 0 0.3-11.2 5.6 5.6 0 1 0-0.3 11.2zM108.04 433.33a5.6 5.6 0 1 0 0.3-11.19 5.6 5.6 0 1 0-0.3 11.19z" stroke="rgba(57, 111, 180, 0.1)" stroke-width="1" stroke-dasharray="2, 2"></path><path d="M833.88 120.85 L823.98 50.68L865.0898936578545 49.605106342145504z" fill="rgba(57, 111, 180, 0.1)"></path><path d="M1295.52 398.9 L1270.06 408.71000000000004L1299.5945981138275 420.6095981138276z" stroke="rgba(57, 111, 180, 0.1)" stroke-width="2.38" stroke-dasharray="3, 3"></path><path d="M742.19 433.43L752.82 440.57 748.2 452.51 758.83 459.64 754.21 471.58 764.84 478.72 760.22 490.66M734.56 435.84L745.19 442.97 740.57 454.91 751.2 462.04 746.58 473.99 757.21 481.12 752.59 493.06M726.93 438.24L737.56 445.37 732.94 457.32 743.57 464.45 738.95 476.39 749.58 483.52 744.96 495.47" stroke="rgba(57, 111, 180, 0.1)" stroke-width="2.69" stroke-dasharray="3, 2"></path></g><defs><mask id="SvgjsMask1138"><rect width="1440" height="560" fill="#ffffff"></rect></mask><pattern x="0" y="0" width="177.6" height="11.1" patternUnits="userSpaceOnUse" id="SvgjsPattern1140"><rect width="177.6" height="5.55" x="0" y="0" fill="rgba(57, 111, 180, 0.1)"></rect><rect width="177.6" height="5.55" x="0" y="5.55" fill="rgba(0, 0, 0, 0)"></rect></pattern><clipPath id="SvgjsClipPath1139"><circle r="44.4" cx="22.76" cy="390.82"></circle></clipPath><pattern x="0" y="0" width="6" height="6" patternUnits="userSpaceOnUse" id="SvgjsPattern1142"><path d="M0 6L3 0L6 6" stroke="rgba(57, 111, 180, 0.1)" fill="none"></path></pattern><clipPath id="SvgjsClipPath1141"><circle r="48" cx="875.71" cy="494.33"></circle></clipPath><pattern x="0" y="0" width="6.64" height="6.64" patternUnits="userSpaceOnUse" id="SvgjsPattern1144"><path d="M0 6.64L3.32 0L6.64 6.64" stroke="rgba(57, 111, 180, 0.1)" fill="none"></path></pattern><clipPath id="SvgjsClipPath1143"><circle r="16.599999999999998" cx="1085.86" cy="181.6"></circle></clipPath></defs></svg>