<svg width="760" height="64" viewBox="0 0 760 64" fill="none" xmlns="http://www.w3.org/2000/svg">
<path fill-rule="evenodd" clip-rule="evenodd" d="M0.386719 4.9828L44.9157 2.22066L45.5399 10.8544L10.0813 13.0956L12.2121 52.8196L38.6809 50.143L37.5407 34.68H20.5897V25.6434L45.954 25.5569L48.5036 58.0219L2.95779 62.3756L0.386719 4.9828ZM38.4697 33.68L39.7497 51.04L11.2697 53.92L9.02971 12.16L44.4695 9.92004L43.9897 3.28002L1.42971 5.92002L3.90971 61.28L47.4297 57.12L45.0297 26.56L21.5897 26.64V33.68H38.4697ZM53.0891 3.86406L101.245 0.859562L101.765 9.49423L53.608 12.5823L53.0891 3.86406ZM58.3534 13.96H67.6306L67.4712 53.3404L101.673 48.8758L102.605 57.6731L58.0189 63.1308L58.3534 13.96ZM66.4666 54.48L66.6266 14.96H59.3469L59.0266 62L101.507 56.8L100.787 50L66.4666 54.48ZM69.3994 25.7125L94.192 23.9726L94.8155 32.597L70.0194 34.5981L69.3994 25.7125ZM100.706 8.56006L100.307 1.92002L54.1466 4.80002L54.5466 11.52L100.706 8.56006ZM70.4666 26.64L93.2663 25.04L93.7466 31.68L70.9466 33.52L70.4666 26.64ZM145.101 12.48L107.661 8.72002L108.781 2.08002L152.461 6.48002L155.101 12.88L129.661 33.68L156.621 56.08L151.021 61.76L119.341 33.2L145.101 12.48ZM131.233 33.6862L156.308 13.1846L153.157 5.54508L107.95 0.991306L106.497 9.60816L142.572 13.231L118.138 32.8846L117.426 12.4186L108.146 12.6225L109.896 62.9415L119.176 62.7375L118.158 33.4802L151.062 63.1431L158.098 56.0067L131.233 33.6862ZM109.181 13.6L110.861 61.92L118.141 61.76L116.461 13.44L109.181 13.6ZM209.04 61.84L200.88 41.76L179.76 44.16L179.12 37.36L198.24 35.36L185.36 3.84002L191.6 1.44002L216.24 59.12L209.04 61.84ZM196.81 34.5042L187.79 12.4288L178.05 36.4665L196.81 34.5042ZM178.035 36.5028L178.86 45.2687L200.24 42.8393L208.481 63.1203L217.57 59.6867L192.141 0.160583L184.048 3.27319L187.649 12.0834L179.337 9.58004L158.408 60.99L167.154 63.3567L178.035 36.5028ZM179.92 10.8L186.56 12.8L166.56 62.16L159.76 60.32L179.92 10.8ZM223.231 1.88002H232.511L233.869 53.4075L269.448 50.8491L269.862 59.6487L224.805 62.8312L223.231 1.88002ZM232.897 54.48L231.537 2.88002H224.257L225.777 61.76L268.817 58.72L268.497 51.92L232.897 54.48ZM286.564 53.0966L312.25 48.8963L315.531 17.771L297.824 10.7797L271.373 13.499L270.646 4.78201L299.297 1.94196L325.683 11.8159L320.796 56.4629L288.112 61.868L286.564 53.0966ZM297.965 9.76003L316.605 17.12L313.165 49.76L287.725 53.92L288.925 60.72L319.885 55.6L324.605 12.48L299.165 2.96002L271.725 5.68003L272.285 12.4L297.965 9.76003ZM275.41 14.44H284.691L286.36 62.76H277.079L275.41 14.44ZM276.445 15.44L278.045 61.76H285.325L283.725 15.44H276.445ZM336.008 1.80002H345.368V62.84H336.008V1.80002ZM356.807 2.16314L366.325 1.75811L368.476 62.5569L358.958 62.9619L356.807 2.16314ZM390.722 10.64L370.882 14.48L369.683 7.60801L369.682 7.60003L369.683 7.59978L397.042 2.88002L405.762 60.56L398.082 61.76L390.722 10.64ZM389.881 11.8212L370.072 15.6554L368.524 6.7849L397.878 1.721L406.899 61.3944L397.236 62.9043L389.881 11.8212ZM357.842 3.12003L365.362 2.80002L367.442 61.6L359.922 61.92L357.842 3.12003ZM409.964 3.86406L458.12 0.859562L458.64 9.49423L410.483 12.5823L409.964 3.86406ZM415.228 13.96H424.506L424.346 53.3404L458.548 48.8758L459.48 57.6731L414.894 63.1308L415.228 13.96ZM423.342 54.48L423.502 14.96H416.222L415.902 62L458.382 56.8L457.662 50L423.342 54.48ZM426.274 25.7125L451.067 23.9726L451.691 32.597L426.894 34.5981L426.274 25.7125ZM411.022 4.80534L411.022 4.80002L457.182 1.92002L457.581 8.55221L457.582 8.56002L411.422 11.52L411.022 4.80534ZM427.342 26.64L450.142 25.04L450.622 31.68L427.822 33.52L427.342 26.64ZM488.167 3.86406L536.323 0.859562L536.843 9.49423L488.686 12.5823L488.167 3.86406ZM493.431 13.96H502.709L502.549 53.3404L536.751 48.8758L537.683 57.6731L493.097 63.1308L493.431 13.96ZM501.545 54.48L501.705 14.96H494.425L494.105 62L536.585 56.8L535.865 50L501.545 54.48ZM504.478 25.7125L529.27 23.9726L529.894 32.597L505.098 34.5981L504.478 25.7125ZM535.784 8.56009L535.784 8.55221L535.385 1.92002L489.225 4.80002L489.625 11.52L535.784 8.56009ZM505.545 26.64L528.345 25.04L528.825 31.68L506.025 33.52L506.025 33.5172L505.545 26.64ZM543.153 1.88002H552.433L553.791 53.4075L589.37 50.8491L589.784 59.6487L544.726 62.8312L543.153 1.88002ZM552.819 54.48L551.459 2.88002H544.179L545.699 61.7593L588.739 58.72L588.419 51.92L552.819 54.48ZM594.458 15.9588L603.716 14.5344L608.371 53.3802L631.809 52.861L633.641 11.7221L593.237 11.8021L593.654 3.16162L643.415 3.07827L640.682 61.2148L600.043 62.3041L594.458 15.9588ZM634.687 10.72L632.767 53.84L607.487 54.4L602.847 15.68L595.567 16.8L600.927 61.28L639.727 60.24L642.367 4.08065L594.607 4.16003L594.287 10.8L634.687 10.72ZM653.604 2.16314L663.122 1.75811L665.273 62.5569L655.755 62.9619L653.604 2.16314ZM687.518 10.64L667.678 14.48L666.478 7.60003L693.838 2.88002L702.558 60.56L694.878 61.76L687.518 10.64ZM686.678 11.8212L666.868 15.6554L665.321 6.7849L694.675 1.721L703.696 61.3944L694.033 62.9043L686.678 11.8212ZM654.638 3.12003L662.158 2.80002L662.159 2.80429L664.238 61.6L656.718 61.92L654.638 3.12003ZM710.63 15.9588L719.888 14.5344L724.543 53.3802L747.981 52.861L749.813 11.7221L709.409 11.8021L709.825 3.16162L759.587 3.07827L756.854 61.2148L716.215 62.3041L710.63 15.9588ZM750.858 10.72L748.938 53.84L723.658 54.4L719.018 15.68L711.738 16.8L717.098 61.28L755.898 60.24L758.538 4.08065L710.778 4.16003L710.458 10.8L750.858 10.72ZM337.008 2.80002V61.84H344.368V2.80002H337.008Z" fill="black"/>
</svg>
