<svg width="758" height="62" viewBox="0 0 758 62" fill="none" xmlns="http://www.w3.org/2000/svg">
<path d="M0.429688 4.92L0.367777 3.92191L-0.613301 3.98277L-0.56931 4.96475L0.429688 4.92ZM42.9897 2.28L43.9871 2.2079L43.9157 1.22063L42.9278 1.28191L42.9897 2.28ZM43.4697 8.92L43.5328 9.918L44.5398 9.85435L44.4671 8.8479L43.4697 8.92ZM8.02969 11.16L7.96661 10.162L6.97807 10.2245L7.03112 11.2136L8.02969 11.16ZM10.2697 52.92L9.27112 52.9736L9.32728 54.0204L10.3703 53.9149L10.2697 52.92ZM38.7497 50.04L38.8503 51.0349L39.8185 50.937L39.747 49.9665L38.7497 50.04ZM37.4697 32.68L38.467 32.6065L38.3987 31.68H37.4697V32.68ZM20.5897 32.68H19.5897V33.68H20.5897V32.68ZM20.5897 25.64L20.5863 24.64L19.5897 24.6434V25.64H20.5897ZM44.0297 25.56L45.0266 25.4817L44.954 24.5568L44.0263 24.56L44.0297 25.56ZM46.4297 56.12L46.5248 57.1155L47.5036 57.0219L47.4266 56.0417L46.4297 56.12ZM2.90969 60.28L1.91069 60.3248L1.95776 61.3756L3.00484 61.2755L2.90969 60.28ZM0.491599 5.91808L43.0516 3.27808L42.9278 1.28191L0.367777 3.92191L0.491599 5.91808ZM41.9923 2.3521L42.4723 8.9921L44.4671 8.8479L43.9871 2.2079L41.9923 2.3521ZM43.4066 7.92199L7.96661 10.162L8.09277 12.158L43.5328 9.918L43.4066 7.92199ZM7.03112 11.2136L9.27112 52.9736L11.2683 52.8664L9.02825 11.1064L7.03112 11.2136ZM10.3703 53.9149L38.8503 51.0349L38.6491 49.0451L10.1691 51.9251L10.3703 53.9149ZM39.747 49.9665L38.467 32.6065L36.4724 32.7535L37.7524 50.1135L39.747 49.9665ZM37.4697 31.68H20.5897V33.68H37.4697V31.68ZM21.5897 32.68V25.64H19.5897V32.68H21.5897ZM20.5931 26.64L44.0331 26.56L44.0263 24.56L20.5863 24.64L20.5931 26.64ZM43.0328 25.6383L45.4328 56.1983L47.4266 56.0417L45.0266 25.4817L43.0328 25.6383ZM46.3345 55.1245L2.81453 59.2845L3.00484 61.2755L46.5248 57.1155L46.3345 55.1245ZM3.90869 60.2352L1.42869 4.87524L-0.56931 4.96475L1.91069 60.3248L3.90869 60.2352ZM53.1466 3.8L53.0843 2.80194L52.0891 2.86403L52.1483 3.85941L53.1466 3.8ZM99.3066 0.919999L100.305 0.859867L100.244 -0.140464L99.2443 -0.0780602L99.3066 0.919999ZM99.7066 7.56L99.7706 8.55795L100.765 8.4942L100.705 7.49987L99.7066 7.56ZM53.5466 10.52L52.5483 10.5794L52.608 11.5822L53.6106 11.5179L53.5466 10.52ZM58.3466 13.96V12.96H57.3533L57.3466 13.9532L58.3466 13.96ZM65.6266 13.96L66.6266 13.964L66.6306 12.96H65.6266V13.96ZM65.4666 53.48L64.4666 53.476L64.4619 54.6196L65.596 54.4716L65.4666 53.48ZM99.7866 49L100.781 48.8947L100.673 47.8758L99.6571 48.0084L99.7866 49ZM100.507 55.8L100.628 56.7926L101.605 56.6731L101.501 55.6947L100.507 55.8ZM58.0266 61L57.0266 60.9932L57.0188 62.1308L58.1481 61.9926L58.0266 61ZM69.4666 25.64L69.3966 24.6425L68.3994 24.7124L68.469 25.7096L69.4666 25.64ZM92.2666 24.04L93.264 23.9679L93.192 22.9726L92.1966 23.0425L92.2666 24.04ZM92.7466 30.68L92.827 31.6768L93.8155 31.597L93.744 30.6079L92.7466 30.68ZM69.9466 32.52L68.949 32.5896L69.0193 33.5981L70.027 33.5168L69.9466 32.52ZM53.2088 4.79805L99.3688 1.91806L99.2443 -0.0780602L53.0843 2.80194L53.2088 4.79805ZM98.3084 0.980131L98.7084 7.62013L100.705 7.49987L100.305 0.859867L98.3084 0.980131ZM99.6426 6.56205L53.4826 9.52205L53.6106 11.5179L99.7706 8.55795L99.6426 6.56205ZM54.5448 10.4606L54.1448 3.74058L52.1483 3.85941L52.5483 10.5794L54.5448 10.4606ZM58.3466 14.96H65.6266V12.96H58.3466V14.96ZM64.6266 13.9559L64.4666 53.476L66.4666 53.484L66.6266 13.964L64.6266 13.9559ZM65.596 54.4716L99.916 49.9916L99.6571 48.0084L65.3371 52.4884L65.596 54.4716ZM98.7921 49.1053L99.5121 55.9053L101.501 55.6947L100.781 48.8947L98.7921 49.1053ZM100.385 54.8074L57.9051 60.0074L58.1481 61.9926L100.628 56.7926L100.385 54.8074ZM59.0265 61.0068L59.3465 13.9668L57.3466 13.9532L57.0266 60.9932L59.0265 61.0068ZM69.5366 26.6375L92.3366 25.0375L92.1966 23.0425L69.3966 24.6425L69.5366 26.6375ZM91.2692 24.1121L91.7492 30.7521L93.744 30.6079L93.264 23.9679L91.2692 24.1121ZM92.6661 29.6832L69.8661 31.5232L70.027 33.5168L92.827 31.6768L92.6661 29.6832ZM70.9441 32.4504L70.4641 25.5704L68.469 25.7096L68.949 32.5896L70.9441 32.4504ZM144.101 11.48L144.728 12.2592L146.63 10.729L144.201 10.485L144.101 11.48ZM106.661 7.72L105.675 7.55367L105.497 8.60814L106.561 8.71499L106.661 7.72ZM107.781 1.08L107.881 0.0850323L106.95 -0.00872076L106.795 0.913672L107.781 1.08ZM151.461 5.48L152.385 5.09867L152.157 4.54505L151.561 4.48503L151.461 5.48ZM154.101 11.88L154.734 12.6542L155.308 12.1845L155.025 11.4987L154.101 11.88ZM128.661 32.68L128.028 31.9058L127.089 32.6738L128.022 33.4492L128.661 32.68ZM155.621 55.08L156.333 55.7821L157.098 55.0067L156.26 54.3108L155.621 55.08ZM150.021 60.76L149.351 61.5027L150.062 62.1431L150.733 61.4621L150.021 60.76ZM118.341 32.2L117.714 31.4208L116.799 32.1566L117.671 32.9427L118.341 32.2ZM108.181 12.6L108.159 11.6002L107.146 11.6225L107.182 12.6347L108.181 12.6ZM115.461 12.44L116.46 12.4053L116.426 11.4185L115.439 11.4402L115.461 12.44ZM117.141 60.76L117.163 61.7598L118.176 61.7375L118.14 60.7253L117.141 60.76ZM109.861 60.92L108.862 60.9547L108.896 61.9415L109.883 61.9198L109.861 60.92ZM144.201 10.485L106.761 6.725L106.561 8.71499L144.001 12.475L144.201 10.485ZM107.647 7.88632L108.767 1.24632L106.795 0.913672L105.675 7.55367L107.647 7.88632ZM107.681 2.07496L151.361 6.47496L151.561 4.48503L107.881 0.0850323L107.681 2.07496ZM150.536 5.86133L153.177 12.2613L155.025 11.4987L152.385 5.09867L150.536 5.86133ZM153.468 11.1058L128.028 31.9058L129.294 33.4542L154.734 12.6542L153.468 11.1058ZM128.022 33.4492L154.982 55.8492L156.26 54.3108L129.3 31.9108L128.022 33.4492ZM154.909 54.3779L149.309 60.0579L150.733 61.4621L156.333 55.7821L154.909 54.3779ZM150.691 60.0173L119.011 31.4573L117.671 32.9427L149.351 61.5027L150.691 60.0173ZM118.968 32.9792L144.728 12.2592L143.474 10.7008L117.714 31.4208L118.968 32.9792ZM108.203 13.5998L115.483 13.4398L115.439 11.4402L108.159 11.6002L108.203 13.5998ZM114.462 12.4747L116.142 60.7947L118.14 60.7253L116.46 12.4053L114.462 12.4747ZM117.119 59.7602L109.839 59.9202L109.883 61.9198L117.163 61.7598L117.119 59.7602ZM110.86 60.8853L109.18 12.5652L107.182 12.6347L108.862 60.9547L110.86 60.8853ZM199.88 40.76L200.807 40.3835L200.521 39.6807L199.767 39.7664L199.88 40.76ZM178.76 43.16L177.765 43.2537L177.86 44.2687L178.873 44.1536L178.76 43.16ZM178.12 36.36L178.016 35.3654L177.032 35.4684L177.125 36.4537L178.12 36.36ZM197.24 34.36L197.344 35.3546L198.67 35.2159L198.166 33.9817L197.24 34.36ZM184.36 2.84L184.001 1.90665L183.048 2.27316L183.435 3.21827L184.36 2.84ZM190.6 0.439996L191.52 0.0471543L191.141 -0.839444L190.241 -0.49335L190.6 0.439996ZM215.24 58.12L215.594 59.0555L216.57 58.6867L216.16 57.7272L215.24 58.12ZM208.04 60.84L207.114 61.2165L207.481 62.1202L208.394 61.7755L208.04 60.84ZM178.92 9.8L179.209 8.84249L178.337 8.58001L177.994 9.42294L178.92 9.8ZM185.56 11.8L186.487 12.1755L186.899 11.1589L185.849 10.8425L185.56 11.8ZM165.56 61.16L165.299 62.1253L166.154 62.3567L166.487 61.5355L165.56 61.16ZM158.76 59.32L157.834 58.9429L157.408 59.99L158.499 60.2853L158.76 59.32ZM199.767 39.7664L178.647 42.1664L178.873 44.1536L199.993 41.7536L199.767 39.7664ZM179.756 43.0663L179.116 36.2663L177.125 36.4537L177.765 43.2537L179.756 43.0663ZM178.224 37.3546L197.344 35.3546L197.136 33.3654L178.016 35.3654L178.224 37.3546ZM198.166 33.9817L185.286 2.46173L183.435 3.21827L196.315 34.7383L198.166 33.9817ZM184.719 3.77334L190.959 1.37334L190.241 -0.49335L184.001 1.90665L184.719 3.77334ZM189.681 0.832837L214.321 58.5128L216.16 57.7272L191.52 0.0471543L189.681 0.832837ZM214.887 57.1845L207.687 59.9045L208.394 61.7755L215.594 59.0555L214.887 57.1845ZM208.967 60.4635L200.807 40.3835L198.954 41.1365L207.114 61.2165L208.967 60.4635ZM178.632 10.7575L185.272 12.7575L185.849 10.8425L179.209 8.84249L178.632 10.7575ZM184.634 11.4245L164.634 60.7845L166.487 61.5355L186.487 12.1755L184.634 11.4245ZM165.822 60.1947L159.022 58.3547L158.499 60.2853L165.299 62.1253L165.822 60.1947ZM159.687 59.6971L179.847 10.1771L177.994 9.42294L157.834 58.9429L159.687 59.6971ZM223.257 1.88V0.879996H222.231L222.258 1.9058L223.257 1.88ZM230.537 1.88L231.537 1.85365L231.511 0.879996H230.537V1.88ZM231.897 53.48L230.898 53.5063L230.925 54.5525L231.969 54.4774L231.897 53.48ZM267.497 50.92L268.496 50.873L268.448 49.8491L267.425 49.9226L267.497 50.92ZM267.817 57.72L267.888 58.7175L268.862 58.6487L268.816 57.673L267.817 57.72ZM224.777 60.76L223.778 60.7858L223.805 61.8312L224.848 61.7575L224.777 60.76ZM223.257 2.88H230.537V0.879996H223.257V2.88ZM229.538 1.90634L230.898 53.5063L232.897 53.4537L231.537 1.85365L229.538 1.90634ZM231.969 54.4774L267.569 51.9174L267.425 49.9226L231.825 52.4826L231.969 54.4774ZM266.498 50.967L266.818 57.767L268.816 57.673L268.496 50.873L266.498 50.967ZM267.747 56.7225L224.707 59.7625L224.848 61.7575L267.888 58.7175L267.747 56.7225ZM225.777 60.7342L224.257 1.85419L222.258 1.9058L223.778 60.7858L225.777 60.7342ZM286.725 52.92L286.563 51.9331L285.564 52.0965L285.74 53.0938L286.725 52.92ZM312.165 48.76L312.326 49.7469L313.079 49.6237L313.159 48.8648L312.165 48.76ZM315.605 16.12L316.599 16.2248L316.679 15.469L315.972 15.1899L315.605 16.12ZM296.965 8.76L297.332 7.82988L297.105 7.7403L296.862 7.76524L296.965 8.76ZM271.285 11.4L270.288 11.483L270.373 12.499L271.387 12.3948L271.285 11.4ZM270.725 4.68L270.626 3.68488L269.646 3.78198L269.728 4.76304L270.725 4.68ZM298.165 1.96L298.515 1.02342L298.297 0.941938L298.066 0.964872L298.165 1.96ZM323.605 11.48L324.599 11.5888L324.683 10.8159L323.955 10.5434L323.605 11.48ZM318.885 54.6L319.048 55.5866L319.796 55.4628L319.879 54.7088L318.885 54.6ZM287.925 59.72L286.94 59.8938L287.112 60.868L288.088 60.7066L287.925 59.72ZM275.445 14.44V13.44H274.41L274.445 14.4745L275.445 14.44ZM282.725 14.44L283.724 14.4055L283.691 13.44H282.725V14.44ZM284.325 60.76V61.76H285.36L285.324 60.7255L284.325 60.76ZM277.045 60.76L276.045 60.7945L276.079 61.76H277.045V60.76ZM286.886 53.9069L312.326 49.7469L312.003 47.7731L286.563 51.9331L286.886 53.9069ZM313.159 48.8648L316.599 16.2248L314.61 16.0152L311.17 48.6552L313.159 48.8648ZM315.972 15.1899L297.332 7.82988L296.597 9.69012L315.237 17.0501L315.972 15.1899ZM296.862 7.76524L271.182 10.4052L271.387 12.3948L297.067 9.75476L296.862 7.76524ZM272.281 11.317L271.721 4.59695L269.728 4.76304L270.288 11.483L272.281 11.317ZM270.823 5.67512L298.263 2.95512L298.066 0.964872L270.626 3.68488L270.823 5.67512ZM297.814 2.89657L323.254 12.4166L323.955 10.5434L298.515 1.02342L297.814 2.89657ZM322.611 11.3712L317.891 54.4912L319.879 54.7088L324.599 11.5888L322.611 11.3712ZM318.722 53.6134L287.762 58.7334L288.088 60.7066L319.048 55.5866L318.722 53.6134ZM288.909 59.5462L287.709 52.7462L285.74 53.0938L286.94 59.8938L288.909 59.5462ZM275.445 15.44H282.725V13.44H275.445V15.44ZM281.725 14.4745L283.325 60.7945L285.324 60.7255L283.724 14.4055L281.725 14.4745ZM284.325 59.76H277.045V61.76H284.325V59.76ZM278.044 60.7255L276.444 14.4055L274.445 14.4745L276.045 60.7945L278.044 60.7255ZM336.008 1.8V0.799997H335.008V1.8H336.008ZM343.368 1.8H344.368V0.799997H343.368V1.8ZM343.368 60.84V61.84H344.368V60.84H343.368ZM336.008 60.84H335.008V61.84H336.008V60.84ZM336.008 2.8H343.368V0.799997H336.008V2.8ZM342.368 1.8V60.84H344.368V1.8H342.368ZM343.368 59.84H336.008V61.84H343.368V59.84ZM337.008 60.84V1.8H335.008V60.84H337.008ZM356.842 2.12L356.799 1.1209L355.807 1.16311L355.842 2.15535L356.842 2.12ZM364.362 1.8L365.361 1.76465L365.325 0.758081L364.319 0.800901L364.362 1.8ZM366.442 60.6L366.484 61.5991L367.476 61.5569L367.441 60.5646L366.442 60.6ZM358.922 60.92L357.922 60.9554L357.958 61.9619L358.964 61.9191L358.922 60.92ZM389.722 9.64L390.711 9.49749L390.562 8.45881L389.532 8.65822L389.722 9.64ZM369.882 13.48L368.896 13.6518L369.071 14.6554L370.072 14.4618L369.882 13.48ZM368.682 6.6L368.512 5.61455L367.524 5.78487L367.696 6.77182L368.682 6.6ZM396.042 1.88L397.03 1.73052L396.878 0.720978L395.872 0.894553L396.042 1.88ZM404.762 59.56L404.916 60.548L405.899 60.3944L405.75 59.4105L404.762 59.56ZM397.082 60.76L396.092 60.9025L396.236 61.9043L397.236 61.748L397.082 60.76ZM356.884 3.11909L364.404 2.79909L364.319 0.800901L356.799 1.1209L356.884 3.11909ZM363.362 1.83535L365.442 60.6354L367.441 60.5646L365.361 1.76465L363.362 1.83535ZM366.399 59.6009L358.879 59.9209L358.964 61.9191L366.484 61.5991L366.399 59.6009ZM359.921 60.8846L357.841 2.08465L355.842 2.15535L357.922 60.9554L359.921 60.8846ZM389.532 8.65822L369.692 12.4982L370.072 14.4618L389.912 10.6218L389.532 8.65822ZM370.867 13.3082L369.667 6.42817L367.696 6.77182L368.896 13.6518L370.867 13.3082ZM368.852 7.58544L396.212 2.86544L395.872 0.894553L368.512 5.61455L368.852 7.58544ZM395.053 2.02948L403.773 59.7095L405.75 59.4105L397.03 1.73052L395.053 2.02948ZM404.607 58.572L396.927 59.772L397.236 61.748L404.916 60.548L404.607 58.572ZM398.071 60.6175L390.711 9.49749L388.732 9.7825L396.092 60.9025L398.071 60.6175ZM410.022 3.8L409.959 2.80194L408.964 2.86403L409.023 3.85941L410.022 3.8ZM456.182 0.919999L457.18 0.859867L457.119 -0.140464L456.119 -0.0780602L456.182 0.919999ZM456.582 7.56L456.646 8.55795L457.64 8.4942L457.58 7.49987L456.582 7.56ZM410.422 10.52L409.423 10.5794L409.483 11.5822L410.486 11.5179L410.422 10.52ZM415.222 13.96V12.96H414.228L414.222 13.9532L415.222 13.96ZM422.502 13.96L423.502 13.964L423.506 12.96H422.502V13.96ZM422.342 53.48L421.342 53.476L421.337 54.6196L422.471 54.4716L422.342 53.48ZM456.662 49L457.656 48.8947L457.548 47.8758L456.532 48.0084L456.662 49ZM457.382 55.8L457.503 56.7926L458.48 56.6731L458.376 55.6947L457.382 55.8ZM414.902 61L413.902 60.9932L413.894 62.1308L415.023 61.9926L414.902 61ZM426.342 25.64L426.272 24.6425L425.274 24.7124L425.344 25.7096L426.342 25.64ZM449.142 24.04L450.139 23.9679L450.067 22.9726L449.072 23.0425L449.142 24.04ZM449.622 30.68L449.702 31.6768L450.69 31.597L450.619 30.6079L449.622 30.68ZM426.822 32.52L425.824 32.5896L425.894 33.5981L426.902 33.5168L426.822 32.52ZM410.084 4.79805L456.244 1.91806L456.119 -0.0780602L409.959 2.80194L410.084 4.79805ZM455.183 0.980131L455.583 7.62013L457.58 7.49987L457.18 0.859867L455.183 0.980131ZM456.518 6.56205L410.358 9.52205L410.486 11.5179L456.646 8.55795L456.518 6.56205ZM411.42 10.4606L411.02 3.74058L409.023 3.85941L409.423 10.5794L411.42 10.4606ZM415.222 14.96H422.502V12.96H415.222V14.96ZM421.502 13.9559L421.342 53.476L423.342 53.484L423.502 13.964L421.502 13.9559ZM422.471 54.4716L456.791 49.9916L456.532 48.0084L422.212 52.4884L422.471 54.4716ZM455.667 49.1053L456.387 55.9053L458.376 55.6947L457.656 48.8947L455.667 49.1053ZM457.26 54.8074L414.78 60.0074L415.023 61.9926L457.503 56.7926L457.26 54.8074ZM415.902 61.0068L416.222 13.9668L414.222 13.9532L413.902 60.9932L415.902 61.0068ZM426.412 26.6375L449.212 25.0375L449.072 23.0425L426.272 24.6425L426.412 26.6375ZM448.144 24.1121L448.624 30.7521L450.619 30.6079L450.139 23.9679L448.144 24.1121ZM449.541 29.6832L426.741 31.5232L426.902 33.5168L449.702 31.6768L449.541 29.6832ZM427.819 32.4504L427.339 25.5704L425.344 25.7096L425.824 32.5896L427.819 32.4504ZM488.225 3.8L488.162 2.80194L487.167 2.86403L487.226 3.85941L488.225 3.8ZM534.385 0.919999L535.383 0.859867L535.323 -0.140464L534.322 -0.0780602L534.385 0.919999ZM534.785 7.56L534.849 8.55795L535.843 8.4942L535.783 7.49987L534.785 7.56ZM488.625 10.52L487.626 10.5794L487.686 11.5822L488.689 11.5179L488.625 10.52ZM493.425 13.96V12.96H492.431L492.425 13.9532L493.425 13.96ZM500.705 13.96L501.705 13.964L501.709 12.96H500.705V13.96ZM500.545 53.48L499.545 53.476L499.54 54.6196L500.674 54.4716L500.545 53.48ZM534.865 49L535.859 48.8947L535.751 47.8758L534.735 48.0084L534.865 49ZM535.585 55.8L535.706 56.7926L536.683 56.6731L536.579 55.6947L535.585 55.8ZM493.105 61L492.105 60.9932L492.097 62.1308L493.226 61.9926L493.105 61ZM504.545 25.64L504.475 24.6425L503.478 24.7124L503.547 25.7096L504.545 25.64ZM527.345 24.04L528.342 23.9679L528.27 22.9726L527.275 23.0425L527.345 24.04ZM527.825 30.68L527.905 31.6768L528.894 31.597L528.822 30.6079L527.825 30.68ZM505.025 32.52L504.027 32.5896L504.097 33.5981L505.105 33.5168L505.025 32.52ZM488.287 4.79805L534.447 1.91806L534.322 -0.0780602L488.162 2.80194L488.287 4.79805ZM533.386 0.980131L533.786 7.62013L535.783 7.49987L535.383 0.859867L533.386 0.980131ZM534.721 6.56205L488.561 9.52205L488.689 11.5179L534.849 8.55795L534.721 6.56205ZM489.623 10.4606L489.223 3.74058L487.226 3.85941L487.626 10.5794L489.623 10.4606ZM493.425 14.96H500.705V12.96H493.425V14.96ZM499.705 13.9559L499.545 53.476L501.545 53.484L501.705 13.964L499.705 13.9559ZM500.674 54.4716L534.994 49.9916L534.735 48.0084L500.415 52.4884L500.674 54.4716ZM533.87 49.1053L534.59 55.9053L536.579 55.6947L535.859 48.8947L533.87 49.1053ZM535.463 54.8074L492.983 60.0074L493.226 61.9926L535.706 56.7926L535.463 54.8074ZM494.105 61.0068L494.425 13.9668L492.425 13.9532L492.105 60.9932L494.105 61.0068ZM504.615 26.6375L527.415 25.0375L527.275 23.0425L504.475 24.6425L504.615 26.6375ZM526.347 24.1121L526.827 30.7521L528.822 30.6079L528.342 23.9679L526.347 24.1121ZM527.744 29.6832L504.944 31.5232L505.105 33.5168L527.905 31.6768L527.744 29.6832ZM506.022 32.4504L505.542 25.5704L503.547 25.7096L504.027 32.5896L506.022 32.4504ZM543.179 1.88V0.879996H542.153L542.179 1.9058L543.179 1.88ZM550.459 1.88L551.459 1.85365L551.433 0.879996H550.459V1.88ZM551.819 53.48L550.819 53.5063L550.847 54.5525L551.891 54.4774L551.819 53.48ZM587.419 50.92L588.418 50.873L588.37 49.8491L587.347 49.9226L587.419 50.92ZM587.739 57.72L587.81 58.7175L588.784 58.6487L588.738 57.673L587.739 57.72ZM544.699 60.76L543.699 60.7858L543.726 61.8312L544.77 61.7575L544.699 60.76ZM543.179 2.88H550.459V0.879996H543.179V2.88ZM549.459 1.90634L550.819 53.5063L552.819 53.4537L551.459 1.85365L549.459 1.90634ZM551.891 54.4774L587.491 51.9174L587.347 49.9226L551.747 52.4826L551.891 54.4774ZM586.42 50.967L586.74 57.767L588.738 57.673L588.418 50.873L586.42 50.967ZM587.669 56.7225L544.629 59.7625L544.77 61.7575L587.81 58.7175L587.669 56.7225ZM545.699 60.7342L544.179 1.85419L542.179 1.9058L543.699 60.7858L545.699 60.7342ZM594.567 15.8L594.415 14.8116L593.458 14.9588L593.574 15.9196L594.567 15.8ZM601.847 14.68L602.839 14.561L602.716 13.5344L601.695 13.6916L601.847 14.68ZM606.487 53.4L605.494 53.519L605.602 54.4198L606.509 54.3998L606.487 53.4ZM631.767 52.84L631.789 53.8398L632.724 53.819L632.766 52.8845L631.767 52.84ZM633.687 9.72L634.686 9.76448L634.732 8.71792L633.685 8.72L633.687 9.72ZM593.287 9.8L592.288 9.75186L592.237 10.8021L593.289 10.8L593.287 9.8ZM593.607 3.16L593.605 2.16L592.654 2.16159L592.608 3.11186L593.607 3.16ZM641.367 3.08L642.365 3.12695L642.415 2.07824L641.365 2.08L641.367 3.08ZM638.727 59.24L638.753 60.2396L639.682 60.2148L639.725 59.287L638.727 59.24ZM599.927 60.28L598.934 60.3996L599.043 61.304L599.953 61.2796L599.927 60.28ZM594.719 16.7884L601.999 15.6684L601.695 13.6916L594.415 14.8116L594.719 16.7884ZM600.854 14.799L605.494 53.519L607.479 53.281L602.839 14.561L600.854 14.799ZM606.509 54.3998L631.789 53.8398L631.744 51.8402L606.464 52.4002L606.509 54.3998ZM632.766 52.8845L634.686 9.76448L632.688 9.67551L630.768 52.7955L632.766 52.8845ZM633.685 8.72L593.285 8.8L593.289 10.8L633.689 10.72L633.685 8.72ZM594.285 9.84814L594.605 3.20814L592.608 3.11186L592.288 9.75186L594.285 9.84814ZM593.608 4.16L641.368 4.07999L641.365 2.08L593.605 2.16L593.608 4.16ZM640.368 3.03304L637.728 59.193L639.725 59.287L642.365 3.12695L640.368 3.03304ZM638.7 58.2404L599.9 59.2804L599.953 61.2796L638.753 60.2396L638.7 58.2404ZM600.919 60.1604L595.559 15.6804L593.574 15.9196L598.934 60.3996L600.919 60.1604ZM653.638 2.12L653.596 1.1209L652.604 1.16311L652.639 2.15535L653.638 2.12ZM661.158 1.8L662.158 1.76465L662.122 0.758081L661.116 0.800901L661.158 1.8ZM663.238 60.6L663.281 61.5991L664.273 61.5569L664.238 60.5646L663.238 60.6ZM655.718 60.92L654.719 60.9554L654.755 61.9619L655.761 61.9191L655.718 60.92ZM686.518 9.64L687.508 9.49749L687.359 8.45881L686.328 8.65822L686.518 9.64ZM666.678 13.48L665.693 13.6518L665.868 14.6554L666.868 14.4618L666.678 13.48ZM665.478 6.6L665.308 5.61455L664.321 5.78487L664.493 6.77182L665.478 6.6ZM692.838 1.88L693.827 1.73052L693.675 0.720978L692.668 0.894553L692.838 1.88ZM701.558 59.56L701.713 60.548L702.696 60.3944L702.547 59.4105L701.558 59.56ZM693.878 60.76L692.889 60.9025L693.033 61.9043L694.033 61.748L693.878 60.76ZM653.681 3.11909L661.201 2.79909L661.116 0.800901L653.596 1.1209L653.681 3.11909ZM660.159 1.83535L662.239 60.6354L664.238 60.5646L662.158 1.76465L660.159 1.83535ZM663.196 59.6009L655.676 59.9209L655.761 61.9191L663.281 61.5991L663.196 59.6009ZM656.718 60.8846L654.638 2.08465L652.639 2.15535L654.719 60.9554L656.718 60.8846ZM686.328 8.65822L666.488 12.4982L666.868 14.4618L686.708 10.6218L686.328 8.65822ZM667.664 13.3082L666.464 6.42817L664.493 6.77182L665.693 13.6518L667.664 13.3082ZM665.648 7.58544L693.008 2.86544L692.668 0.894553L665.308 5.61455L665.648 7.58544ZM691.85 2.02948L700.57 59.7095L702.547 59.4105L693.827 1.73052L691.85 2.02948ZM701.404 58.572L693.724 59.772L694.033 61.748L701.713 60.548L701.404 58.572ZM694.868 60.6175L687.508 9.49749L685.529 9.7825L692.889 60.9025L694.868 60.6175ZM710.738 15.8L710.586 14.8116L709.63 14.9588L709.746 15.9196L710.738 15.8ZM718.018 14.68L719.011 14.561L718.888 13.5344L717.866 13.6916L718.018 14.68ZM722.658 53.4L721.666 53.519L721.773 54.4198L722.681 54.3998L722.658 53.4ZM747.938 52.84L747.961 53.8398L748.896 53.819L748.937 52.8845L747.938 52.84ZM749.858 9.72L750.857 9.76448L750.904 8.71792L749.856 8.72L749.858 9.72ZM709.458 9.8L708.46 9.75186L708.409 10.8021L709.46 10.8L709.458 9.8ZM709.778 3.16L709.777 2.16L708.825 2.16159L708.78 3.11186L709.778 3.16ZM757.538 3.08L758.537 3.12695L758.587 2.07824L757.537 2.08L757.538 3.08ZM754.898 59.24L754.925 60.2396L755.854 60.2148L755.897 59.287L754.898 59.24ZM716.098 60.28L715.106 60.3996L715.215 61.304L716.125 61.2796L716.098 60.28ZM710.89 16.7884L718.17 15.6684L717.866 13.6916L710.586 14.8116L710.89 16.7884ZM717.026 14.799L721.666 53.519L723.651 53.281L719.011 14.561L717.026 14.799ZM722.681 54.3998L747.961 53.8398L747.916 51.8402L722.636 52.4002L722.681 54.3998ZM748.937 52.8845L750.857 9.76448L748.859 9.67551L746.939 52.7955L748.937 52.8845ZM749.856 8.72L709.456 8.8L709.46 10.8L749.86 10.72L749.856 8.72ZM710.457 9.84814L710.777 3.20814L708.78 3.11186L708.46 9.75186L710.457 9.84814ZM709.78 4.16L757.54 4.07999L757.537 2.08L709.777 2.16L709.78 4.16ZM756.54 3.03304L753.9 59.193L755.897 59.287L758.537 3.12695L756.54 3.03304ZM754.872 58.2404L716.072 59.2804L716.125 61.2796L754.925 60.2396L754.872 58.2404ZM717.091 60.1604L711.731 15.6804L709.746 15.9196L715.106 60.3996L717.091 60.1604Z" fill="black"/>
</svg>
